<svg xmlns="http://www.w3.org/2000/svg" viewBox="0 0 1200 630" fill="none">
  <rect width="1200" height="630" rx="48" fill="#07120F"/>
  <circle cx="220" cy="130" r="170" fill="#1A312C" opacity=".9"/>
  <circle cx="1000" cy="520" r="240" fill="#618764" opacity=".26"/>
  <rect x="88" y="90" width="520" height="450" rx="36" fill="#0E1916" stroke="#2C443D"/>
  <rect x="652" y="90" width="460" height="210" rx="36" fill="#10211C" stroke="#2C443D"/>
  <rect x="652" y="328" width="224" height="212" rx="36" fill="#10211C" stroke="#2C443D"/>
  <rect x="888" y="328" width="224" height="212" rx="36" fill="#10211C" stroke="#2C443D"/>
  <text x="120" y="168" fill="#F7FAF8" font-size="58" font-family="Inter, Arial, sans-serif" font-weight="700">Smart Finance AI</text>
  <text x="120" y="230" fill="#BFD0C3" font-size="28" font-family="Inter, Arial, sans-serif">AI-powered personal finance dashboard</text>
  <text x="690" y="172" fill="#F7FAF8" font-size="36" font-family="Inter, Arial, sans-serif" font-weight="700">INR 3,84,200</text>
  <text x="690" y="214" fill="#BFD0C3" font-size="22" font-family="Inter, Arial, sans-serif">Monthly net worth</text>
  <rect x="120" y="286" width="472" height="14" rx="7" fill="#1A312C"/>
  <rect x="120" y="286" width="336" height="14" rx="7" fill="#618764"/>
  <rect x="120" y="338" width="472" height="14" rx="7" fill="#1A312C"/>
  <rect x="120" y="338" width="258" height="14" rx="7" fill="#8FB18F"/>
  <rect x="120" y="390" width="472" height="14" rx="7" fill="#1A312C"/>
  <rect x="120" y="390" width="392" height="14" rx="7" fill="#B7D1BA"/>
</svg>
